<svg xmlns="http://www.w3.org/2000/svg" id="Capa_1" width="200" height="200" viewBox="0 0 200 200"><style>.s0{stop-color:#F02349;}.s1{stop-color:#FE8D79;}</style><linearGradient id="SVGID_1_" gradientUnits="userSpaceOnUse" x1="-6.15" y1="7.093" x2="190.85" y2="206.093"><stop offset="0" stop-color="#F02349"/><stop offset="1" stop-color="#FE8D79"/></linearGradient><path fill="url(#SVGID_1_)" d="M191.633 90H180V69.106c0-5.02-4.087-9.106-9.106-9.106h-4.228V0H33.333v6.667h-10v6.667h-10v23.333H9.106C4.086 36.667 0 40.753 0 45.773v145.623h.02c-.017 1.877.567 3.713 1.74 5.25C3.394 198.78 5.867 200 8.55 200h149.196c3.857 0 7.25-2.6 8.164-6.043l34.09-93.46v-.59c0-5.74-3.52-9.907-8.367-9.907zm-20.74-23.333c1.348 0 2.44 1.093 2.44 2.44V90h-6.667V66.667h4.228zM160 6.667V90H42.437c-.776 0-1.523.13-2.247.327-.06.017-.13.01-.19.027V6.667h120zM33.333 13.333v85.283l-.21.577-3.123 8.56v-94.42h3.333zM20 20h3.333v106.033L20 135.17V20zM6.667 45.773c0-1.347 1.097-2.44 2.44-2.44h4.227v109.81l-6.667 18.183V45.773zM159.56 191.947c-.216.816-.963 1.387-1.813 1.387H8.55c-.81 0-1.283-.464-1.493-.74-.21-.273-.533-.854-.41-1.36l6.687-18.333v.004l10-27.417 10-27.416v.01l6.44-17.67.226-.617.533-1.463.087-.273c.22-.816.97-1.39 1.816-1.39h149.197c1.264 0 1.59 1.82 1.67 2.73l-33.742 92.55z"/><linearGradient id="SVGID_2_" gradientUnits="userSpaceOnUse" x1="18.509" y1="-17.318" x2="215.509" y2="181.682"><stop offset="0" stop-color="#F02349"/><stop offset="1" stop-color="#FE8D79"/></linearGradient><path fill="url(#SVGID_2_)" d="M60 56.667h80c1.84 0 3.334-1.49 3.334-3.333S141.84 50 140 50H60c-1.84 0-3.333 1.49-3.333 3.333S58.16 56.667 60 56.667zm0-23.334h33.333c1.84 0 3.333-1.49 3.333-3.333s-1.493-3.333-3.333-3.333H60c-1.84 0-3.333 1.49-3.333 3.333S58.16 33.333 60 33.333zM60 80h80c1.84 0 3.334-1.49 3.334-3.333s-1.494-3.333-3.334-3.333H60c-1.84 0-3.333 1.49-3.333 3.333S58.16 80 60 80z"/></svg>