<svg xmlns="http://www.w3.org/2000/svg" id="Capa_1" width="200" height="200" viewBox="0 0 200 200"><style>.s0{stop-color:#F02349;}.s1{stop-color:#FE8D79;}</style><linearGradient id="SVGID_1_" gradientUnits="userSpaceOnUse" x1="38.3" y1="-32.3" x2="233.3" y2="162.7"><stop offset="0" stop-color="#F02349"/><stop offset="1" stop-color="#FE8D79"/></linearGradient><path fill="url(#SVGID_1_)" d="M28.6 50c12.6 0 23-9.3 24.7-21.4h139.6c2 0 3.6-1.6 3.6-3.6s-1.6-3.6-3.6-3.6H53.3C51.5 9.3 41.1 0 28.6 0c-13.8 0-25 11.2-25 25s11.2 25 25 25zm0-42.9c9.8 0 17.9 8 17.9 17.9s-8 17.9-17.9 17.9c-9.8 0-17.9-8-17.9-17.9s8-17.9 17.9-17.9z"/><linearGradient id="SVGID_2_" gradientUnits="userSpaceOnUse" x1="-32.3" y1="38.3" x2="162.7" y2="233.3"><stop offset="0" stop-color="#F02349"/><stop offset="1" stop-color="#FE8D79"/></linearGradient><path fill="url(#SVGID_2_)" d="M171.4 150c-12.6 0-23 9.3-24.7 21.4H7.1c-2 0-3.6 1.6-3.6 3.6s1.6 3.6 3.6 3.6h139.6c1.8 12.1 12.2 21.4 24.7 21.4 13.8 0 25-11.2 25-25s-11.2-25-25-25zm0 42.9c-9.8 0-17.9-8-17.9-17.9s8-17.9 17.9-17.9 17.9 8 17.9 17.9-8 17.9-17.9 17.9z"/><linearGradient id="SVGID_3_" gradientUnits="userSpaceOnUse" x1="3" y1="3" x2="198" y2="198"><stop offset="0" stop-color="#F02349"/><stop offset="1" stop-color="#FE8D79"/></linearGradient><path fill="url(#SVGID_3_)" d="M192.9 96.4h-66.5c-1.4-12.9-12.3-22.9-25.6-22.9-13.2 0-24.2 10-25.6 22.9H7.1c-2 0-3.6 1.6-3.6 3.6s1.6 3.6 3.6 3.6h68.2C77.5 115.7 88 125 100.7 125s23.3-9.3 25.3-21.4h66.8c2 0 3.6-1.6 3.6-3.6s-1.6-3.6-3.5-3.6zm-92.2 21.5c-10.3 0-18.6-8.3-18.6-18.6s8.3-18.6 18.6-18.6 18.6 8.3 18.6 18.6c0 10.2-8.3 18.6-18.6 18.6z"/></svg>